<svg version="1.1" id="Layer_1" xmlns="http://www.w3.org/2000/svg" xmlns:xlink="http://www.w3.org/1999/xlink" x="0px" y="0px"
	 width="100%" viewBox="0 0 361 223" enable-background="new 0 0 361 223" xml:space="preserve">
<path fill="none" opacity="1.000000" stroke="none" 
	d="
M260.000000,224.000000 
	C173.333359,224.000000 87.166718,224.000000 1.000058,224.000000 
	C1.000039,149.666718 1.000039,75.333427 1.000019,1.000108 
	C121.333252,1.000072 241.666504,1.000072 361.999817,1.000036 
	C361.999878,75.333229 361.999878,149.666458 361.999939,223.999847 
	C328.166656,224.000000 294.333344,224.000000 260.000000,224.000000 
M307.976227,74.832771 
	C305.642151,56.615833 297.091797,49.014923 278.890808,48.994389 
	C269.392639,48.983669 259.894440,48.992271 250.396271,48.992157 
	C248.316330,48.992134 246.236374,48.992153 244.254227,48.992153 
	C244.254227,86.581406 244.254227,123.355225 244.254227,160.691971 
	C246.298126,160.691971 248.085983,160.692139 249.873825,160.691956 
	C266.204010,160.690216 282.534210,160.688522 298.864410,160.686554 
	C307.164246,160.685562 307.166321,160.685516 307.962585,152.221375 
	C308.024933,151.558487 308.057831,150.890213 308.057526,150.224457 
	C308.045197,125.405060 308.027344,100.585655 307.976227,74.832771 
M82.491585,153.278961 
	C82.491585,155.559418 82.491585,157.839890 82.491585,160.344055 
	C91.401840,160.344055 99.613663,160.344055 108.298096,160.344055 
	C108.298096,149.193573 108.401901,138.392288 108.261353,127.594208 
	C108.168709,120.475960 105.889389,114.424980 97.920235,111.272469 
	C105.818871,107.996559 109.127426,101.927528 109.334763,94.812378 
	C109.618683,85.069496 109.678299,75.130196 108.072014,65.571167 
	C106.153908,54.156502 98.691101,49.054237 87.106789,49.000977 
	C74.783791,48.944321 62.460289,48.977993 50.137089,49.008144 
	C48.876411,49.011227 47.616337,49.260120 46.371643,49.393272 
	C46.371643,92.996887 46.371643,136.228653 46.371643,179.606735 
	C55.314259,179.606735 63.994480,179.606735 73.036697,179.606735 
	C73.036697,159.589172 73.036697,139.981339 73.036697,120.385269 
	C80.496849,120.247780 82.223167,121.608505 82.400696,128.347672 
	C82.611130,136.335602 82.476479,144.332626 82.491585,153.278961 
M181.335403,137.499863 
	C181.335403,145.097122 181.335403,152.694366 181.335403,160.696747 
	C198.289032,160.696747 214.423309,160.709595 230.557556,160.689636 
	C236.045853,160.682831 236.136124,160.520462 234.949875,153.863251 
	C226.192459,153.863251 217.303497,153.863251 208.399155,153.863251 
	C208.399155,143.985519 208.399155,134.732071 208.399155,124.818077 
	C216.716049,124.818077 224.758316,124.818077 232.608612,124.818077 
	C232.608612,116.217705 232.608612,108.285835 232.608612,99.871185 
	C224.384735,99.871185 216.471100,99.871185 208.512329,99.871185 
	C208.512329,90.995003 208.512329,82.619354 208.512329,73.760178 
	C217.163483,73.760178 225.413620,73.760178 233.690674,73.760178 
	C233.690674,65.336647 233.690674,57.409966 233.690674,49.300568 
	C216.214905,49.300568 198.999557,49.300568 181.335632,49.300568 
	C181.335632,78.577721 181.335632,107.538803 181.335403,137.499863 
M118.832260,88.499977 
	C118.832260,112.416344 118.832260,136.332703 118.832260,160.237457 
	C137.214798,160.237457 154.904984,160.237457 172.649292,160.237457 
	C172.649292,158.008499 172.649292,156.244125 172.649292,153.883484 
	C163.528687,153.883484 154.644669,153.883484 145.578339,153.883484 
	C145.578339,144.032623 145.578339,134.781174 145.578339,125.015533 
	C153.726364,125.015533 161.628632,125.015533 169.699539,125.015533 
	C169.699539,116.451225 169.699539,108.404366 169.699539,99.801941 
	C161.502411,99.801941 153.612198,99.801941 145.603058,99.801941 
	C145.603058,90.989456 145.603058,82.738213 145.603058,73.975922 
	C154.119858,73.975922 162.356613,73.975922 170.718796,73.975922 
	C170.718796,65.410736 170.718796,57.363033 170.718796,49.301586 
	C153.325409,49.301586 136.258911,49.301586 118.832184,49.301586 
	C118.832184,62.239933 118.832184,74.869949 118.832260,88.499977 
M191.537415,170.996368 
	C188.271866,170.996368 185.006302,170.996368 181.591095,170.996368 
	C181.591095,174.300262 181.591095,176.888855 181.591095,179.758789 
	C199.601135,179.758789 217.334686,179.758789 235.301498,179.758789 
	C235.301498,176.816666 235.301498,174.097778 235.301498,170.996597 
	C220.810532,170.996597 206.669128,170.996597 191.537415,170.996368 
M141.500031,171.002335 
	C134.068207,171.002335 126.636375,171.002335 119.205032,171.002335 
	C119.205032,174.333710 119.205032,177.041061 119.205032,179.642242 
	C137.288162,179.642242 154.981125,179.642242 172.615646,179.642242 
	C172.615646,176.654343 172.615646,174.064240 172.615646,171.002319 
	C162.381577,171.002319 152.440811,171.002319 141.500031,171.002335 
M299.952209,172.516525 
	C298.790710,172.012253 297.631836,171.075851 296.467346,171.068848 
	C280.321716,170.971878 264.175354,170.994278 248.029160,171.017517 
	C246.759796,171.019333 245.490738,171.244263 244.223862,171.365280 
	C244.223862,174.317230 244.223862,176.914154 244.223862,179.681229 
	C258.071594,179.681229 271.704468,180.253418 285.243408,179.376419 
	C290.099182,179.061874 294.728546,175.251663 299.952209,172.516525 
M86.626831,180.030396 
	C93.690483,180.030396 100.754143,180.030396 107.739502,180.030396 
	C107.739502,176.644241 107.739502,173.948639 107.739502,171.265228 
	C99.274086,171.265228 91.215500,171.265228 82.586205,171.265228 
	C83.868546,174.398941 79.428604,178.775452 86.626831,180.030396 
z"/>
<path fill="#DF3325" opacity="1.000000" stroke="none" 
	d="
M307.993225,75.299515 
	C308.027344,100.585655 308.045197,125.405060 308.057526,150.224457 
	C308.057831,150.890213 308.024933,151.558487 307.962585,152.221375 
	C307.166321,160.685516 307.164246,160.685562 298.864410,160.686554 
	C282.534210,160.688522 266.204010,160.690216 249.873825,160.691956 
	C248.085983,160.692139 246.298126,160.691971 244.254227,160.691971 
	C244.254227,123.355225 244.254227,86.581406 244.254227,48.992153 
	C246.236374,48.992153 248.316330,48.992134 250.396271,48.992157 
	C259.894440,48.992271 269.392639,48.983669 278.890808,48.994389 
	C297.091797,49.014923 305.642151,56.615833 307.993225,75.299515 
z"/>
<path fill="#DF3325" opacity="1.000000" stroke="none" 
	d="
M82.491486,152.802338 
	C82.476479,144.332626 82.611130,136.335602 82.400696,128.347672 
	C82.223167,121.608505 80.496849,120.247780 73.036697,120.385269 
	C73.036697,139.981339 73.036697,159.589172 73.036697,179.606735 
	C63.994480,179.606735 55.314259,179.606735 46.371643,179.606735 
	C46.371643,136.228653 46.371643,92.996887 46.371643,49.393272 
	C47.616337,49.260120 48.876411,49.011227 50.137089,49.008144 
	C62.460289,48.977993 74.783791,48.944321 87.106789,49.000977 
	C98.691101,49.054237 106.153908,54.156502 108.072014,65.571167 
	C109.678299,75.130196 109.618683,85.069496 109.334763,94.812378 
	C109.127426,101.927528 105.818871,107.996559 97.920235,111.272469 
	C105.889389,114.424980 108.168709,120.475960 108.261353,127.594208 
	C108.401901,138.392288 108.298096,149.193573 108.298096,160.344055 
	C99.613663,160.344055 91.401840,160.344055 82.491585,160.344055 
	C82.491585,157.839890 82.491585,155.559418 82.491486,152.802338 
z"/>
<path fill="#DF3325" opacity="1.000000" stroke="none" 
	d="
M181.335510,136.999878 
	C181.335632,107.538803 181.335632,78.577721 181.335632,49.300568 
	C198.999557,49.300568 216.214905,49.300568 233.690674,49.300568 
	C233.690674,57.409966 233.690674,65.336647 233.690674,73.760178 
	C225.413620,73.760178 217.163483,73.760178 208.512329,73.760178 
	C208.512329,82.619354 208.512329,90.995003 208.512329,99.871185 
	C216.471100,99.871185 224.384735,99.871185 232.608612,99.871185 
	C232.608612,108.285835 232.608612,116.217705 232.608612,124.818077 
	C224.758316,124.818077 216.716049,124.818077 208.399155,124.818077 
	C208.399155,134.732071 208.399155,143.985519 208.399155,153.863251 
	C217.303497,153.863251 226.192459,153.863251 234.949875,153.863251 
	C236.136124,160.520462 236.045853,160.682831 230.557556,160.689636 
	C214.423309,160.709595 198.289032,160.696747 181.335403,160.696747 
	C181.335403,152.694366 181.335403,145.097122 181.335510,136.999878 
z"/>
<path fill="#DF3325" opacity="1.000000" stroke="none" 
	d="
M118.832222,87.999969 
	C118.832184,74.869949 118.832184,62.239933 118.832184,49.301586 
	C136.258911,49.301586 153.325409,49.301586 170.718796,49.301586 
	C170.718796,57.363033 170.718796,65.410736 170.718796,73.975922 
	C162.356613,73.975922 154.119858,73.975922 145.603058,73.975922 
	C145.603058,82.738213 145.603058,90.989456 145.603058,99.801941 
	C153.612198,99.801941 161.502411,99.801941 169.699539,99.801941 
	C169.699539,108.404366 169.699539,116.451225 169.699539,125.015533 
	C161.628632,125.015533 153.726364,125.015533 145.578339,125.015533 
	C145.578339,134.781174 145.578339,144.032623 145.578339,153.883484 
	C154.644669,153.883484 163.528687,153.883484 172.649292,153.883484 
	C172.649292,156.244125 172.649292,158.008499 172.649292,160.237457 
	C154.904984,160.237457 137.214798,160.237457 118.832260,160.237457 
	C118.832260,136.332703 118.832260,112.416344 118.832222,87.999969 
z"/>
<path fill="#DF3325" opacity="1.000000" stroke="none" 
	d="
M192.032578,170.996490 
	C206.669128,170.996597 220.810532,170.996597 235.301498,170.996597 
	C235.301498,174.097778 235.301498,176.816666 235.301498,179.758789 
	C217.334686,179.758789 199.601135,179.758789 181.591095,179.758789 
	C181.591095,176.888855 181.591095,174.300262 181.591095,170.996368 
	C185.006302,170.996368 188.271866,170.996368 192.032578,170.996490 
z"/>
<path fill="#DF3325" opacity="1.000000" stroke="none" 
	d="
M142.000031,171.002319 
	C152.440811,171.002319 162.381577,171.002319 172.615646,171.002319 
	C172.615646,174.064240 172.615646,176.654343 172.615646,179.642242 
	C154.981125,179.642242 137.288162,179.642242 119.205032,179.642242 
	C119.205032,177.041061 119.205032,174.333710 119.205032,171.002335 
	C126.636375,171.002335 134.068207,171.002335 142.000031,171.002319 
z"/>
<path fill="#DF3325" opacity="1.000000" stroke="none" 
	d="
M299.706726,172.776703 
	C294.728546,175.251663 290.099182,179.061874 285.243408,179.376419 
	C271.704468,180.253418 258.071594,179.681229 244.223862,179.681229 
	C244.223862,176.914154 244.223862,174.317230 244.223862,171.365280 
	C245.490738,171.244263 246.759796,171.019333 248.029160,171.017517 
	C264.175354,170.994278 280.321716,170.971878 296.467346,171.068848 
	C297.631836,171.075851 298.790710,172.012253 299.706726,172.776703 
z"/>
<path fill="#DF3325" opacity="1.000000" stroke="none" 
	d="
M86.139374,180.029297 
	C79.428604,178.775452 83.868546,174.398941 82.586205,171.265228 
	C91.215500,171.265228 99.274086,171.265228 107.739502,171.265228 
	C107.739502,173.948639 107.739502,176.644241 107.739502,180.030396 
	C100.754143,180.030396 93.690483,180.030396 86.139374,180.029297 
z"/>
</svg>